<svg xmlns="http://www.w3.org/2000/svg" viewBox="0 0 512 512">
<path d="M0 128C0 92.7 28.7 64 64 64l384 0c35.3 0 64 28.7 64 64l0 256c0 35.3-28.7 64-64 64L64 448c-35.3 0-64-28.7-64-64L0 128zm64 32l0 64c0 17.7 14.3 32 32 32l320 0c17.7 0 32-14.3 32-32l0-64c0-17.7-14.3-32-32-32L96 128c-17.7 0-32 14.3-32 32zM80 320c-13.3 0-24 10.7-24 24s10.7 24 24 24l56 0c13.3 0 24-10.7 24-24s-10.7-24-24-24l-56 0zm136 0c-13.3 0-24 10.7-24 24s10.7 24 24 24l48 0c13.3 0 24-10.7 24-24s-10.7-24-24-24l-48 0z"/>
<g opacity="0.4">
<path d="M2.60946 22.9843C1.77292 22.9631 1.13928 22.4599 1.07089 21.6259C1.02993 21.1264 1 20.4398 1 19.5C1 18.5602 1.02993 17.8736 1.07089 17.3741C1.13928 16.5401 1.77292 16.0369 2.60946 16.0157C2.97545 16.0064 3.43306 16 4 16C4.56694 16 5.02455 16.0064 5.39055 16.0157C6.2271 16.0369 6.8607 16.5401 6.9291 17.3741C6.97005 17.8736 7 18.5602 7 19.5C7 20.4398 6.97005 21.1264 6.9291 21.6259C6.8607 22.4599 6.2271 22.9631 5.39055 22.9843C5.02455 22.9936 4.56694 23 4 23C3.43306 23 2.97545 22.9936 2.60946 22.9843Z" fill="#637381"/>
<path d="M18.8455 22.9792C17.8709 22.9408 17.1875 22.2557 17.1243 21.2823C17.0588 20.2731 17 18.6337 17 16C17 13.3663 17.0588 11.727 17.1243 10.7177C17.1875 9.74435 17.8709 9.0592 18.8455 9.02075C19.1671 9.00805 19.5489 9 20 9C20.4511 9 20.8329 9.00805 21.1545 9.02075C22.1291 9.0592 22.8125 9.74435 22.8757 10.7177C22.9412 11.727 23 13.3663 23 16C23 18.6337 22.9412 20.2731 22.8757 21.2823C22.8125 22.2557 22.1291 22.9408 21.1545 22.9792C20.8329 22.9919 20.4511 23 20 23C19.5489 23 19.1671 22.9919 18.8455 22.9792Z" fill="#637381"/>
<path d="M10.7766 22.9832C9.8427 22.9548 9.162 22.3419 9.0949 21.41C9.0422 20.6775 9 19.5936 9 18C9 16.4064 9.0422 15.3225 9.0949 14.59C9.162 13.6581 9.8427 13.0453 10.7766 13.0169C11.1121 13.0067 11.5163 13 12 13C12.4837 13 12.8879 13.0067 13.2234 13.0169C14.1573 13.0453 14.838 13.6581 14.9051 14.59C14.9578 15.3225 15 16.4064 15 18C15 19.5936 14.9578 20.6775 14.9051 21.41C14.838 22.3419 14.1573 22.9548 13.2234 22.9832C12.8879 22.9934 12.4837 23 12 23C11.5163 23 11.1121 22.9934 10.7766 22.9832Z" fill="#637381"/>
</g>
</svg>